<?xml version="1.0" encoding="UTF-8"?>
<svg version="1.1" xmlns="http://www.w3.org/2000/svg" width="426" height="318">
<path d="M0 0 C4.29165262 -0.02891949 8.58328036 -0.04677118 12.875 -0.0625 C14.70998047 -0.07506836 14.70998047 -0.07506836 16.58203125 -0.08789062 C18.33193359 -0.09272461 18.33193359 -0.09272461 20.1171875 -0.09765625 C21.73536377 -0.10551147 21.73536377 -0.10551147 23.38623047 -0.11352539 C26 0 26 0 28 1 C28 28.06 28 55.12 28 83 C31.96 83 35.92 83 40 83 C40 56.27 40 29.54 40 2 C40.66 2 41.32 2 42 2 C43.26171875 3.7578125 43.26171875 3.7578125 44.6875 6.125 C50.19043801 14.52422118 55.71410411 17.64468496 65.20703125 20.921875 C68 22 68 22 70 24 C70.27174377 26.39772034 70.27174377 26.39772034 70.30297852 29.44360352 C70.31962051 30.58140762 70.33626251 31.71921173 70.35340881 32.89149475 C70.36182297 34.12484055 70.37023712 35.35818634 70.37890625 36.62890625 C70.39590073 37.88887924 70.4128952 39.14885223 70.43040466 40.44700623 C70.47463608 43.79869384 70.51091583 47.15025939 70.54260254 50.5020752 C70.58827021 55.2310602 70.64409462 59.95989754 70.70530701 64.68870544 C70.73740145 67.20822508 70.76424781 69.72781769 70.78553772 72.24745178 C70.79902756 73.38210373 70.8125174 74.51675568 70.82641602 75.68579102 C70.83592789 76.69013687 70.84543976 77.69448273 70.85523987 78.72926331 C70.74684352 80.96707263 70.74684352 80.96707263 72 82 C74.73701178 82.16010481 77.4516759 82.25946828 80.19140625 82.31640625 C81.42116432 82.3475779 81.42116432 82.3475779 82.67576599 82.37937927 C85.30458901 82.44496494 87.93351504 82.50380126 90.5625 82.5625 C92.34050561 82.60567667 94.11850065 82.64929067 95.89648438 82.69335938 C100.26421634 82.80065543 104.63205227 82.90189704 109 83 C109.02887814 86.47914941 109.04675687 89.95826831 109.0625 93.4375 C109.07087891 94.43072266 109.07925781 95.42394531 109.08789062 96.44726562 C109.09111328 97.39150391 109.09433594 98.33574219 109.09765625 99.30859375 C109.10289307 100.18314209 109.10812988 101.05769043 109.11352539 101.95874023 C109 104 109 104 108 105 C105.56603981 105.09498646 103.16057048 105.12558417 100.72631836 105.11352539 C99.58493156 105.11374443 99.58493156 105.11374443 98.42048645 105.1139679 C95.89357702 105.11326862 93.36674038 105.10547555 90.83984375 105.09765625 C89.0924941 105.09579212 87.34514393 105.0943682 85.59779358 105.09336853 C80.98968066 105.08954293 76.38159905 105.07971229 71.77349854 105.06866455 C67.07491479 105.05845134 62.37632601 105.0538711 57.67773438 105.04882812 C48.45180913 105.03809005 39.22590716 105.02101313 30 105 C29.84998535 106.27286865 29.6999707 107.5457373 29.54541016 108.85717773 C28.58653133 116.99322853 24.38294554 122.95519818 18 128 C12.19625551 131.37829903 6.24800778 132.12602874 -0.359375 132.1328125 C-1.55691406 132.13410156 -2.75445312 132.13539063 -3.98828125 132.13671875 C-5.22964844 132.13285156 -6.47101563 132.12898437 -7.75 132.125 C-9.00683594 132.12886719 -10.26367188 132.13273438 -11.55859375 132.13671875 C-12.75097656 132.13542969 -13.94335938 132.13414062 -15.171875 132.1328125 C-16.2659668 132.13168457 -17.36005859 132.13055664 -18.48730469 132.12939453 C-21 132 -21 132 -22 131 C-22.07325168 128.13732433 -22.09238205 125.299281 -22.0625 122.4375 C-22.05798828 121.63119141 -22.05347656 120.82488281 -22.04882812 119.99414062 C-22.03700518 117.99606244 -22.01906914 115.99802217 -22 114 C-20.33710938 113.83564453 -20.33710938 113.83564453 -18.640625 113.66796875 C-17.17701127 113.50847238 -15.71347333 113.34827951 -14.25 113.1875 C-13.52039063 113.11724609 -12.79078125 113.04699219 -12.0390625 112.97460938 C-7.81661019 112.49478525 -5.07481241 111.97354301 -2 109 C-1.40069912 106.93062613 -1.40069912 106.93062613 -1.48774719 104.59056091 C-1.47527954 103.68901276 -1.46281189 102.7874646 -1.44996643 101.8585968 C-1.45656784 100.8719957 -1.46316925 99.88539459 -1.4699707 98.86889648 C-1.46123932 97.82803894 -1.45250793 96.7871814 -1.44351196 95.71478271 C-1.41907061 92.26671268 -1.42255098 88.81923959 -1.42578125 85.37109375 C-1.41334383 82.98119579 -1.39901178 80.591307 -1.38285828 78.20143127 C-1.3447542 71.90408452 -1.32963077 65.60689522 -1.32006836 59.30944824 C-1.30035669 49.22502071 -1.24359825 39.14071381 -1.19130516 29.05641365 C-1.17590915 25.52542704 -1.16875807 21.99450004 -1.16316223 18.46348572 C-1.15614845 16.30955984 -1.14904772 14.15563424 -1.1418457 12.00170898 C-1.14237442 11.01308365 -1.14290314 10.02445831 -1.14344788 9.00587463 C-1.1394397 8.1071463 -1.13543152 7.20841797 -1.13130188 6.28245544 C-1.1300446 5.49914069 -1.12878733 4.71582594 -1.12749195 3.90877438 C-1 2 -1 2 0 0 Z " fill="#E62227" transform="translate(266,106)"/>
<path d="M0 0 C1.14287476 0.00424484 2.28574951 0.00848969 3.46325684 0.01286316 C7.09033409 0.02956901 10.7168425 0.06720719 14.34375 0.10546875 C16.81249194 0.120526 19.28124264 0.13421258 21.75 0.14648438 C27.78144196 0.17944604 33.81255532 0.22956472 39.84375 0.29296875 C39.93734992 14.49695619 40.00753939 28.70089553 40.05099869 42.90512848 C40.07185871 49.50098886 40.10014817 56.09664181 40.14550781 62.69238281 C40.18902093 69.05958593 40.21289904 75.42658971 40.22325897 81.79393005 C40.23064043 84.22117754 40.24505467 86.64841432 40.26667023 89.07557678 C40.2957758 92.47965939 40.29970286 95.88292202 40.29785156 99.28710938 C40.31223267 100.28692841 40.32661377 101.28674744 40.34143066 102.31686401 C40.29593739 110.0654686 38.32248148 116.35420558 32.78125 121.98046875 C25.121898 129.19508418 13.92318525 132.5769124 3.59765625 132.48828125 C2.94167953 132.48545135 2.28570282 132.48262146 1.60984802 132.47970581 C-0.45821409 132.46862859 -2.52582173 132.44354938 -4.59375 132.41796875 C-6.00715515 132.40792277 -7.42056717 132.39879977 -8.83398438 132.390625 C-12.27488394 132.36873059 -15.71552252 132.33428926 -19.15625 132.29296875 C-19.18309312 129.48040594 -19.20301188 126.66809634 -19.21875 123.85546875 C-19.22712891 123.05302734 -19.23550781 122.25058594 -19.24414062 121.42382812 C-19.2527643 119.38001654 -19.2085315 117.33612973 -19.15625 115.29296875 C-16.86021228 112.99693103 -10.39908452 113.9376603 -7.12109375 113.86328125 C-1.78861732 113.6531344 2.24347045 113.10875699 6.84375 110.29296875 C7.83375 107.98296875 8.82375 105.67296875 9.84375 103.29296875 C-2.69625 103.29296875 -15.23625 103.29296875 -28.15625 103.29296875 C-28.22405352 91.66205742 -28.27908225 80.03127757 -28.31168652 68.40021324 C-28.32733569 62.99931871 -28.34856052 57.59856652 -28.38256836 52.19775391 C-28.41518817 46.98469266 -28.43310864 41.77176826 -28.44088173 36.55861282 C-28.4464205 34.57071402 -28.45723638 32.58282262 -28.47344017 30.59498215 C-28.49524914 27.80843733 -28.49821546 25.02245642 -28.49682617 22.23583984 C-28.507612 21.41584503 -28.51839783 20.59585022 -28.5295105 19.75100708 C-28.49720014 13.7533516 -27.35146204 9.48818079 -22.96875 5.10546875 C-15.40298413 0.22975297 -8.78177268 -0.12404887 0 0 Z M1.99003601 23.94903564 C0.61119557 26.76849757 0.48160325 28.66097384 0.50317383 31.79589844 C0.50340042 32.89673767 0.50362701 33.9975769 0.50386047 35.1317749 C0.51934433 36.31418762 0.53482819 37.49660034 0.55078125 38.71484375 C0.55502609 39.92996643 0.55927094 41.14508911 0.56364441 42.39703369 C0.58044124 46.27923714 0.61809662 50.16092211 0.65625 54.04296875 C0.67129548 56.67447167 0.68498412 59.30598273 0.69726562 61.9375 C0.73034815 68.38949992 0.78055821 74.84119729 0.84375 81.29296875 C3.81375 81.29296875 6.78375 81.29296875 9.84375 81.29296875 C9.84375 61.82296875 9.84375 42.35296875 9.84375 22.29296875 C4.17520776 21.62673697 4.17520776 21.62673697 1.99003601 23.94903564 Z " fill="#E62227" transform="translate(197.15625,107.70703125)"/>
<path d="M0 0 C0.33 0 0.66 0 1 0 C0.70045448 6.23054691 -0.36387253 12.19870066 -1.8125 18.25 C-1.96557617 18.92289063 -2.11865234 19.59578125 -2.27636719 20.2890625 C-4.14319912 27.77117702 -7.74180159 32.5623684 -14 37 C-16.56589001 38.01917483 -18.92370174 38.84087077 -21.5625 39.5625 C-22.25706299 39.76665527 -22.95162598 39.97081055 -23.66723633 40.18115234 C-25.77479711 40.79981953 -27.88689058 41.40060359 -30 42 C-32.39813675 42.70049525 -34.79421467 43.40810474 -37.1875 44.125 C-38.19167969 44.41632813 -39.19585937 44.70765625 -40.23046875 45.0078125 C-44.65524389 46.59299287 -47.37127644 48.05691466 -50 52 C-50.30958648 54.95666063 -50.30958648 54.95666063 -50.265625 58.3125 C-50.26820312 59.55257812 -50.27078125 60.79265625 -50.2734375 62.0703125 C-50.26183594 64.01550781 -50.26183594 64.01550781 -50.25 66 C-50.25773437 67.29679687 -50.26546875 68.59359375 -50.2734375 69.9296875 C-50.26957031 71.78980469 -50.26957031 71.78980469 -50.265625 73.6875 C-50.26336914 74.82574219 -50.26111328 75.96398437 -50.25878906 77.13671875 C-50.21169711 80.19980153 -50.21169711 80.19980153 -48 83 C-43.75405073 84.12647634 -40.45910192 84.01185252 -36.25390625 83.01171875 C-35.45412354 82.82440186 -34.65434082 82.63708496 -33.83032227 82.4440918 C-33.22631592 82.2975415 -32.62230957 82.15099121 -32 82 C-32.02618408 81.08710205 -32.05236816 80.1742041 -32.0793457 79.23364258 C-32.16478542 75.83227656 -32.22734999 72.43205742 -32.2746582 69.0300293 C-32.29973644 67.56044475 -32.33380856 66.09098413 -32.37719727 64.62182617 C-32.43815499 62.50408319 -32.46627316 60.38799424 -32.48828125 58.26953125 C-32.51446533 56.99698486 -32.54064941 55.72443848 -32.56762695 54.41333008 C-31.85266325 50.11401501 -30.35290597 48.68495893 -27 46 C-24.74609375 45.28515625 -24.74609375 45.28515625 -22.4375 45.0625 C-15.49538398 43.94012196 -8.06763439 41.32049797 -3.19921875 36.05078125 C-2.0700336 34.40863293 -1.02534631 32.70891052 0 31 C0.66 31 1.32 31 2 31 C2 55.09 2 79.18 2 104 C-9.22 104 -20.44 104 -32 104 C-32 103.01 -32 102.02 -32 101 C-32.84820312 101.27714844 -33.69640625 101.55429688 -34.5703125 101.83984375 C-48.09582757 106.0164039 -62.0769204 108.24035927 -75.4375 102.1875 C-79.70950156 99.81998993 -82.12626878 97.00830126 -84.08276367 92.51123047 C-85.33780618 87.70685961 -85.30531694 83.1414246 -85.30078125 78.1953125 C-85.30506638 77.15736542 -85.3093515 76.11941833 -85.31376648 75.05001831 C-85.31949581 72.85968758 -85.32002037 70.66933782 -85.31567383 68.47900391 C-85.31251724 65.14322135 -85.33597957 61.8083291 -85.36132812 58.47265625 C-85.36360172 56.33854278 -85.36430434 54.20442694 -85.36328125 52.0703125 C-85.372491 51.0804837 -85.38170074 50.09065491 -85.39118958 49.0708313 C-85.34620463 42.2746501 -84.5875508 36.48618298 -80.4140625 30.86328125 C-69.72614841 21.59886663 -55.90716954 19.73133133 -42.4375 17.4375 C-18.51948013 14.05921357 -18.51948013 14.05921357 0 0 Z " fill="#E72227" transform="translate(158,107)"/>
<path d="M0 0 C7.68624527 -0.1017053 15.37231595 -0.17159403 23.05908203 -0.21972656 C25.67210373 -0.23979933 28.28508075 -0.26706358 30.89794922 -0.30175781 C34.66124522 -0.35046435 38.42394549 -0.37301311 42.1875 -0.390625 C43.34926758 -0.41127014 44.51103516 -0.43191528 45.70800781 -0.45318604 C52.62442691 -0.45508476 57.14509568 0.22126659 63 4 C66.77302594 8.64372423 68.12301945 12.41034882 68.12939453 18.29370117 C68.13254669 19.13104294 68.13569885 19.9683847 68.13894653 20.83110046 C68.13591019 22.17347527 68.13591019 22.17347527 68.1328125 23.54296875 C68.13376923 24.46717117 68.13472595 25.3913736 68.13571167 26.34358215 C68.13639118 28.29277617 68.13455287 30.24197246 68.13037109 32.19116211 C68.12500137 35.18673728 68.13033318 38.18216375 68.13671875 41.17773438 C68.13605829 43.07031283 68.13477778 44.9628912 68.1328125 46.85546875 C68.13483673 47.75645798 68.13686096 48.6574472 68.13894653 49.58573914 C68.11496205 55.88503795 68.11496205 55.88503795 67 57 C62.52731037 57.281489 58.04299265 57.23181434 53.5625 57.25 C52.29599609 57.270625 51.02949219 57.29125 49.72460938 57.3125 C48.51740234 57.31765625 47.31019531 57.3228125 46.06640625 57.328125 C44.95209229 57.3374707 43.83777832 57.34681641 42.68969727 57.35644531 C41.80209717 57.23881836 40.91449707 57.12119141 40 57 C37.60370545 53.40555817 37.74218669 50.85138348 37.8046875 46.70703125 C37.8075174 46.00100266 37.81034729 45.29497406 37.81326294 44.56755066 C37.82444536 42.31569367 37.8495458 40.06423648 37.875 37.8125 C37.88503233 36.28451096 37.89415774 34.75651567 37.90234375 33.22851562 C37.92437828 29.48552337 37.95889433 25.74282944 38 22 C37.03139038 22.02719116 37.03139038 22.02719116 36.04321289 22.05493164 C25.47990235 22.22633445 16.1402906 19.99319973 7.9453125 13.0078125 C0 4.80722892 0 4.80722892 0 0 Z " fill="#E42328" transform="translate(311,105)"/>
<path d="M0 0 C0.99 0 1.98 0 3 0 C3.64910154 1.58199631 4.29414694 3.16565724 4.9375 4.75 C5.47697266 6.07257813 5.47697266 6.07257813 6.02734375 7.421875 C8.79463958 14.756876 9.33333291 22.58031018 6.3125 29.9375 C3.95705443 34.56574392 1.26698634 37.06003005 -3.5625 39.0625 C-4.696875 39.371875 -5.83125 39.68125 -7 40 C-7.97195312 40.27070312 -8.94390625 40.54140625 -9.9453125 40.8203125 C-18.59692513 43.13435829 -18.59692513 43.13435829 -22 42 C-18.37 39.36 -14.74 36.72 -11 34 C-13.475 34.495 -13.475 34.495 -16 35 C-16.33 35.66 -16.66 36.32 -17 37 C-17.556875 36.38125 -18.11375 35.7625 -18.6875 35.125 C-21.09596354 32.91181729 -22.98763196 32.15860309 -26 31 C-28.99432248 28.64890235 -29.53904834 26.6396491 -30.125 22.9375 C-30.2796875 21.97070312 -30.434375 21.00390625 -30.59375 20.0078125 C-31.17817303 15.68083426 -31.64132433 11.35130217 -32 7 C-26.3893982 7.38037978 -22.9752359 7.69349444 -19 12 C-17.48686681 14.59465135 -16.19639248 17.24629216 -15 20 C-5.39673203 11.35428146 -5.39673203 11.35428146 0 0 Z M-17 32 C-16 34 -16 34 -16 34 Z " fill="#E42227" transform="translate(150,75)"/>
<path d="M0 0 C1.1653125 -0.00128906 2.330625 -0.00257812 3.53125 -0.00390625 C4.7584375 -0.00003906 5.985625 0.00382812 7.25 0.0078125 C9.09078125 0.00201172 9.09078125 0.00201172 10.96875 -0.00390625 C12.71671875 -0.00197266 12.71671875 -0.00197266 14.5 0 C15.57765625 0.00112793 16.6553125 0.00225586 17.765625 0.00341797 C20.25 0.1328125 20.25 0.1328125 21.25 1.1328125 C21.34899523 2.68236809 21.38079524 4.23634923 21.3828125 5.7890625 C21.38474609 7.19865234 21.38474609 7.19865234 21.38671875 8.63671875 C21.38285156 9.62542969 21.37898438 10.61414063 21.375 11.6328125 C21.38080078 13.11587891 21.38080078 13.11587891 21.38671875 14.62890625 C21.38542969 15.56863281 21.38414062 16.50835937 21.3828125 17.4765625 C21.38168457 18.34474609 21.38055664 19.21292969 21.37939453 20.10742188 C21.25 22.1328125 21.25 22.1328125 20.25 23.1328125 C18.33541718 23.23253036 16.41717683 23.26361839 14.5 23.265625 C13.3346875 23.26691406 12.169375 23.26820312 10.96875 23.26953125 C9.7415625 23.26566406 8.514375 23.26179688 7.25 23.2578125 C5.40921875 23.26361328 5.40921875 23.26361328 3.53125 23.26953125 C2.3659375 23.26824219 1.200625 23.26695313 0 23.265625 C-1.07765625 23.26449707 -2.1553125 23.26336914 -3.265625 23.26220703 C-5.75 23.1328125 -5.75 23.1328125 -6.75 22.1328125 C-6.84899523 20.58325691 -6.88079524 19.02927577 -6.8828125 17.4765625 C-6.88410156 16.53683594 -6.88539063 15.59710938 -6.88671875 14.62890625 C-6.88285156 13.64019531 -6.87898438 12.65148437 -6.875 11.6328125 C-6.87886719 10.64410156 -6.88273437 9.65539062 -6.88671875 8.63671875 C-6.88542969 7.69699219 -6.88414062 6.75726563 -6.8828125 5.7890625 C-6.88168457 4.92087891 -6.88055664 4.05269531 -6.87939453 3.15820312 C-6.60851858 -1.08177221 -3.5797396 0.00374674 0 0 Z " fill="#E12429" transform="translate(272.75,77.8671875)"/>
<path d="M0 0 C0.66 0 1.32 0 2 0 C2.33 2.97 2.66 5.94 3 9 C4.423125 8.938125 4.423125 8.938125 5.875 8.875 C9 9 9 9 11 11 C11 11.99 11 12.98 11 14 C11.66 14 12.32 14 13 14 C13.495 7.565 13.495 7.565 14 1 C14.66 1 15.32 1 16 1 C17.4908651 5.96955033 16.84081808 10.95509151 16 16 C15 17 15 17 12.98144531 17.09765625 C12.10584961 17.08605469 11.23025391 17.07445312 10.328125 17.0625 C9.35883057 17.05412109 8.38953613 17.04574219 7.39086914 17.03710938 C6.35438232 17.02486328 5.31789551 17.01261719 4.25 17 C-4.23119151 16.94230928 -12.55989783 17.09281051 -21 18 C-21 20.97 -21 23.94 -21 27 C-21.66 26.67 -22.32 26.34 -23 26 C-24.30584759 21.69070295 -24.28283454 17.45464406 -24 13 C-22.5 10.5 -22.5 10.5 -21 9 C-19.0625 9.8125 -19.0625 9.8125 -17 11 C-16.67 11.99 -16.34 12.98 -16 14 C-13.03 14.495 -13.03 14.495 -10 15 C-10.66 14.01 -11.32 13.02 -12 12 C-12 11.01 -12 10.02 -12 9 C-9.03 9 -6.06 9 -3 9 C-3.33 10.65 -3.66 12.3 -4 14 C-3.01 13.67 -2.02 13.34 -1 13 C-1.01160156 12.14535156 -1.02320313 11.29070312 -1.03515625 10.41015625 C-1.04417969 9.30542969 -1.05320312 8.20070312 -1.0625 7.0625 C-1.07410156 5.96035156 -1.08570313 4.85820312 -1.09765625 3.72265625 C-1 1 -1 1 0 0 Z M-8 11 C-7.34 11.66 -6.68 12.32 -6 13 C-5.67 12.34 -5.34 11.68 -5 11 C-5.99 11 -6.98 11 -8 11 Z M2.875 13 C2.25625 13.66 1.6375 14.32 1 15 C4.465 14.505 4.465 14.505 8 14 C7.67 13.01 7.34 12.02 7 11 C4.75637427 10.7715451 4.75637427 10.7715451 2.875 13 Z M-20 13 C-19.67 13.99 -19.34 14.98 -19 16 C-19 15.01 -19 14.02 -19 13 C-19.33 13 -19.66 13 -20 13 Z M-23 15 C-22 17 -22 17 -22 17 Z " fill="#D12930" transform="translate(333,243)"/>
<path d="M0 0 C0.66 0 1.32 0 2 0 C2.02887814 3.47914941 2.04675687 6.95826831 2.0625 10.4375 C2.07087891 11.43072266 2.07925781 12.42394531 2.08789062 13.44726562 C2.09111328 14.39150391 2.09433594 15.33574219 2.09765625 16.30859375 C2.10289307 17.18314209 2.10812988 18.05769043 2.11352539 18.95874023 C2 21 2 21 1 22 C-1.17805719 22.09429342 -3.3592128 22.11742538 -5.53930664 22.11352539 C-6.22220261 22.11367142 -6.90509857 22.11381744 -7.60868835 22.1139679 C-9.87587614 22.11326876 -12.14298274 22.1054764 -14.41015625 22.09765625 C-15.97814387 22.09579207 -17.54613207 22.09436817 -19.11412048 22.09336853 C-23.24876503 22.08954334 -27.38337466 22.07971306 -31.51800537 22.06866455 C-35.73400398 22.05845044 -39.95000822 22.05387091 -44.16601562 22.04882812 C-52.44402647 22.03809079 -60.7220089 22.02101436 -69 22 C-67 20 -67 20 -64.21591187 19.75949097 C-63.03010529 19.76393219 -61.84429871 19.76837341 -60.62255859 19.77294922 C-59.96877731 19.77265717 -59.31499603 19.77236511 -58.6414032 19.77206421 C-56.47694704 19.77345935 -54.31283364 19.7890288 -52.1484375 19.8046875 C-50.64914132 19.80841698 -49.1498427 19.81126426 -47.65054321 19.81326294 C-43.70163257 19.82090452 -39.75286871 19.8405574 -35.80401611 19.8626709 C-31.77561428 19.8831181 -27.74718876 19.89226224 -23.71875 19.90234375 C-15.81242508 19.92380291 -7.9062477 19.95898922 0 20 C0 13.4 0 6.8 0 0 Z " fill="#C33336" transform="translate(373,189)"/>
<path d="M0 0 C0.66 0 1.32 0 2 0 C3.4908651 4.96955033 2.84081808 9.95509151 2 15 C1 16 1 16 -2.5625 16.0625 C-3.696875 16.041875 -4.83125 16.02125 -6 16 C-6.33 15.34 -6.66 14.68 -7 14 C-14.03263809 15.93101923 -14.03263809 15.93101923 -19 21 C-22.1875 21.25 -22.1875 21.25 -25 21 C-25.33 20.34 -25.66 19.68 -26 19 C-24.02 18.34 -22.04 17.68 -20 17 C-20.99 16.34 -21.98 15.68 -23 15 C-23.1875 12.375 -23.1875 12.375 -23 10 C-21.35 9.67 -19.7 9.34 -18 9 C-17.01 10.32 -16.02 11.64 -15 13 C-14.67 11.35 -14.34 9.7 -14 8 C-9.78121808 7.80377759 -6.82989106 8.19769832 -3 10 C-3.33 11.32 -3.66 12.64 -4 14 C-3.01 13.67 -2.02 13.34 -1 13 C-0.67 8.71 -0.34 4.42 0 0 Z M-13 10 C-13 10.99 -13 11.98 -13 13 C-11.68 12.34 -10.36 11.68 -9 11 C-10.32 10.67 -11.64 10.34 -13 10 Z M-21 11 C-21.33 11.66 -21.66 12.32 -22 13 C-20.68 13.33 -19.36 13.66 -18 14 C-18.99 13.01 -19.98 12.02 -21 11 Z " fill="#D42229" transform="translate(157,244)"/>
<path d="M0 0 C0.66 0 1.32 0 2 0 C2.33 2.64 2.66 5.28 3 8 C3.99 8 4.98 8 6 8 C6.33 6.35 6.66 4.7 7 3 C11.21878192 2.80377759 14.17010894 3.19769832 18 5 C17.67 6.32 17.34 7.64 17 9 C19.99332739 8.0022242 20.94766315 7.2477975 23 5 C23.33 5.99 23.66 6.98 24 8 C25.32 8 26.64 8 28 8 C28 6.35 28 4.7 28 3 C28.66 2.67 29.32 2.34 30 2 C31.36623674 4.73247348 31.128426 6.98198902 31 10 C30 11 30 11 26.62109375 11.09765625 C25.22652923 11.09098369 23.83198257 11.07902532 22.4375 11.0625 C21.72658203 11.05798828 21.01566406 11.05347656 20.28320312 11.04882812 C18.52209987 11.03700864 16.76103964 11.01907263 15 11 C14.67 10.34 14.34 9.68 14 9 C13.23429687 9.49113281 13.23429687 9.49113281 12.453125 9.9921875 C9.13227963 11.35648384 6.32627432 11.1912273 2.75 11.125 C1.48671875 11.10695313 0.2234375 11.08890625 -1.078125 11.0703125 C-2.04234375 11.04710937 -3.0065625 11.02390625 -4 11 C-4.33 9.68 -4.66 8.36 -5 7 C-2.03 7.495 -2.03 7.495 1 8 C0.67 5.36 0.34 2.72 0 0 Z M8 5 C8 5.99 8 6.98 8 8 C9.32 7.34 10.64 6.68 12 6 C10.68 5.67 9.36 5.34 8 5 Z " fill="#CE2A30" transform="translate(227,249)"/>
<path d="M0 0 C0.33 0 0.66 0 1 0 C1 3.33333333 1 6.66666667 1 10 C0.67 10 0.34 10 0 10 C-0.02540371 16.58365045 -0.04288948 23.16728821 -0.05493164 29.75097656 C-0.05995313 31.98958814 -0.06677158 34.22819645 -0.07543945 36.46679688 C-0.08760069 39.6888103 -0.09325024 42.91078027 -0.09765625 46.1328125 C-0.10281754 47.12991241 -0.10797882 48.12701233 -0.11329651 49.15432739 C-0.11367654 53.88648227 0.00971846 58.34670473 1 63 C-1 62 -1 62 -2.10620117 59.61279297 C-3.30527857 54.76604419 -3.30534365 50.17054306 -3.30078125 45.1953125 C-3.30506638 44.15736542 -3.3093515 43.11941833 -3.31376648 42.05001831 C-3.31949581 39.85968758 -3.32002037 37.66933782 -3.31567383 35.47900391 C-3.31251724 32.14322135 -3.33597957 28.8083291 -3.36132812 25.47265625 C-3.36360172 23.33854278 -3.36430434 21.20442694 -3.36328125 19.0703125 C-3.372491 18.0804837 -3.38170074 17.09065491 -3.39118958 16.0708313 C-3.35112426 10.01789167 -2.47281383 5.53737026 0 0 Z " fill="#C62E34" transform="translate(76,140)"/>
<path d="M0 0 C1.2065625 0.0309375 1.2065625 0.0309375 2.4375 0.0625 C2.7675 1.0525 3.0975 2.0425 3.4375 3.0625 C0.9625 2.5675 0.9625 2.5675 -1.5625 2.0625 C-1.2325 2.7225 -0.9025 3.3825 -0.5625 4.0625 C1.4175 4.0625 3.3975 4.0625 5.4375 4.0625 C3.98295455 7.82007576 3.98295455 7.82007576 1.75 8.8125 C-1.36396062 9.14914439 -4.43357191 9.12267169 -7.5625 9.0625 C-7.645 9.68125 -7.7275 10.3 -7.8125 10.9375 C-8.5625 13.0625 -8.5625 13.0625 -10.3125 14.375 C-13.10087213 15.2270026 -14.79340059 14.88574577 -17.5625 14.0625 C-18.5625 13.0625 -18.5625 13.0625 -18.625 9.5 C-18.604375 8.365625 -18.58375 7.23125 -18.5625 6.0625 C-17.9025 5.7325 -17.2425 5.4025 -16.5625 5.0625 C-16.5625 7.0425 -16.5625 9.0225 -16.5625 11.0625 C-13.59184491 10.72022428 -13.59184491 10.72022428 -10.5625 10.0625 C-9.22917905 7.3958581 -9.89147967 5.89569697 -10.5625 3.0625 C-9.9025 2.7325 -9.2425 2.4025 -8.5625 2.0625 C-7.9025 3.3825 -7.2425 4.7025 -6.5625 6.0625 C-5.5725 6.0625 -4.5825 6.0625 -3.5625 6.0625 C-3.583125 5.258125 -3.60375 4.45375 -3.625 3.625 C-3.54067676 0.16774696 -3.45725304 0.08432324 0 0 Z " fill="#CB2930" transform="translate(190.5625,250.9375)"/>
<path d="M0 0 C0.66 0 1.32 0 2 0 C3.4908651 4.96955033 2.84081808 9.95509151 2 15 C1 16 1 16 -1.94140625 16.09765625 C-3.13636719 16.08605469 -4.33132813 16.07445312 -5.5625 16.0625 C-7.35880859 16.04896484 -7.35880859 16.04896484 -9.19140625 16.03515625 C-10.11824219 16.02355469 -11.04507812 16.01195312 -12 16 C-11.67 14.68 -11.34 13.36 -11 12 C-9.02 12.495 -9.02 12.495 -7 13 C-7.33 10.69 -7.66 8.38 -8 6 C-7.01 6 -6.02 6 -5 6 C-4.34 8.31 -3.68 10.62 -3 13 C-2.34 13 -1.68 13 -1 13 C-0.67 8.71 -0.34 4.42 0 0 Z " fill="#C72C33" transform="translate(293,244)"/>
<path d="M0 0 C-0.33 0.99 -0.66 1.98 -1 3 C-1.99 3 -2.98 3 -4 3 C-4.33 3.66 -4.66 4.32 -5 5 C-3.68 5.33 -2.36 5.66 -1 6 C-0.8125 8.375 -0.8125 8.375 -1 11 C-4.67346771 13.44897847 -6.66356399 13.31537716 -11 13 C-13 11 -13 11 -13.1953125 9.0546875 C-13.13020833 7.03645833 -13.06510417 5.01822917 -13 3 C-12.01 3.495 -12.01 3.495 -11 4 C-10.375 6.5625 -10.375 6.5625 -10 9 C-6.95086772 10.01111093 -6.95086772 10.01111093 -4 9 C-4.99 8.34 -5.98 7.68 -7 7 C-6.74438677 4.6568787 -6.40729228 2.32156597 -6 0 C-3.50907189 -1.24546405 -2.58919267 -0.7767578 0 0 Z " fill="#C92C32" transform="translate(279,251)"/>
<path d="M0 0 C0.66 0 1.32 0 2 0 C2 24.09 2 48.18 2 73 C1.67 73 1.34 73 1 73 C1 49.9 1 26.8 1 3 C0.34 3 -0.32 3 -1 3 C-0.67 2.01 -0.34 1.02 0 0 Z " fill="#B41F26" transform="translate(158,138)"/>
<path d="M0 0 C4.875 1.875 4.875 1.875 6 3 C6.12330088 4.8096774 6.17790183 6.62407837 6.20532227 8.43774414 C6.22526749 9.59887222 6.24521271 10.76000031 6.26576233 11.95631409 C6.28247482 13.219832 6.29918732 14.48334991 6.31640625 15.78515625 C6.3475779 17.71408974 6.3475779 17.71408974 6.37937927 19.68199158 C6.43466176 23.10635904 6.48404361 26.5307875 6.53222656 29.95526123 C6.58239665 33.44744314 6.6381061 36.9395361 6.69335938 40.43164062 C6.8010164 47.28768333 6.90244449 54.14380633 7 61 C6.34 61 5.68 61 5 61 C4.99453156 60.00854225 4.99453156 60.00854225 4.98895264 58.99705505 C4.94706159 52.10209303 4.87766897 45.20779257 4.79248047 38.31323242 C4.76429826 35.74201075 4.74307013 33.17070288 4.72900391 30.59936523 C4.70753742 26.89782674 4.66086435 23.1973216 4.609375 19.49609375 C4.60814636 18.35103867 4.60691772 17.20598358 4.60565186 16.02622986 C4.48619552 9.47995563 3.86172246 5.35191675 0 0 Z " fill="#D93134" transform="translate(330,127)"/>
<path d="M0 0 C1.98 0 3.96 0 6 0 C5.67 4.29 5.34 8.58 5 13 C1.5625 12.1875 1.5625 12.1875 -2 11 C-2.33 10.01 -2.66 9.02 -3 8 C-2.34 8 -1.68 8 -1 8 C-1.020625 7.05125 -1.04125 6.1025 -1.0625 5.125 C-1 2 -1 2 0 0 Z " fill="#E92126" transform="translate(127,94)"/>
<path d="M0 0 C3 1 3 1 4.8125 3.75 C7.24125843 7.3584411 9.58537918 9.36142936 13 12 C11.0625 12.5625 11.0625 12.5625 9 13 C8.67 12.67 8.34 12.34 8 12 C6.33382885 11.95936168 4.66611905 11.957279 3 12 C3 11.34 3 10.68 3 10 C2.01 10.33 1.02 10.66 0 11 C0 7.37 0 3.74 0 0 Z " fill="#DB252A" transform="translate(307,110)"/>
<path d="M0 0 C2.475 0.99 2.475 0.99 5 2 C4.01 2.495 4.01 2.495 3 3 C3 3.66 3 4.32 3 5 C1.02 5.66 -0.96 6.32 -3 7 C-3.33 16.9 -3.66 26.8 -4 37 C-6.475 37.495 -6.475 37.495 -9 38 C-7.68 37.34 -6.36 36.68 -5 36 C-5.02618408 35.08710205 -5.05236816 34.1742041 -5.0793457 33.23364258 C-5.16478542 29.83227656 -5.22734999 26.43205742 -5.2746582 23.0300293 C-5.29973644 21.56044475 -5.33380856 20.09098413 -5.37719727 18.62182617 C-5.43815499 16.50408319 -5.46627316 14.38799424 -5.48828125 12.26953125 C-5.51446533 10.99698486 -5.54064941 9.72443848 -5.56762695 8.41333008 C-4.8590824 4.15261552 -3.26869557 2.70770145 0 0 Z " fill="#D3262E" transform="translate(131,153)"/>
<path d="M0 0 C0.66 0 1.32 0 2 0 C2.33 1.65 2.66 3.3 3 5 C6.73486879 5.5745952 10.21293268 6 14 6 C13.67 4.35 13.34 2.7 13 1 C13.99 0.67 14.98 0.34 16 0 C16.6875 2.8125 16.6875 2.8125 17 6 C15.8984375 7.6796875 15.8984375 7.6796875 14 9 C11.15234375 9.36328125 11.15234375 9.36328125 7.9375 9.3125 C6.87402344 9.30863281 5.81054688 9.30476563 4.71484375 9.30078125 C2 9 2 9 0 7 C-0.125 3.375 -0.125 3.375 0 0 Z " fill="#BE2D34" transform="translate(203,252)"/>
<path d="M0 0 C0.33 0 0.66 0 1 0 C1.01981934 0.79696289 1.03963867 1.59392578 1.06005859 2.41503906 C1.15533248 6.02702472 1.26500307 9.63843399 1.375 13.25 C1.42140625 15.13138672 1.42140625 15.13138672 1.46875 17.05078125 C1.50742188 18.25605469 1.54609375 19.46132812 1.5859375 20.703125 C1.6173584 21.81333008 1.6487793 22.92353516 1.68115234 24.06738281 C1.98789356 26.88865042 2.54286225 28.5970009 4 31 C0.125 30.125 0.125 30.125 -1 29 C-1.09977024 27.10888327 -1.13080672 25.21405814 -1.1328125 23.3203125 C-1.13410156 22.16402344 -1.13539062 21.00773437 -1.13671875 19.81640625 C-1.13285156 18.59824219 -1.12898438 17.38007813 -1.125 16.125 C-1.12886719 14.91457031 -1.13273437 13.70414063 -1.13671875 12.45703125 C-1.13542969 11.29816406 -1.13414063 10.13929688 -1.1328125 8.9453125 C-1.13168457 7.87812988 -1.13055664 6.81094727 -1.12939453 5.71142578 C-1 3 -1 3 0 0 Z " fill="#C12529" transform="translate(106,160)"/>
<path d="M0 0 C0.66 0 1.32 0 2 0 C3.4908651 4.96955033 2.84081808 9.95509151 2 15 C1 16 1 16 -1.04125977 16.11352539 C-1.91580811 16.10828857 -2.79035645 16.10305176 -3.69140625 16.09765625 C-4.63564453 16.09443359 -5.57988281 16.09121094 -6.55273438 16.08789062 C-8.04256836 16.07532227 -8.04256836 16.07532227 -9.5625 16.0625 C-10.55958984 16.05798828 -11.55667969 16.05347656 -12.58398438 16.04882812 C-15.05604849 16.03700007 -17.52799518 16.02051849 -20 16 C-20 15.67 -20 15.34 -20 15 C-13.73 15 -7.46 15 -1 15 C-0.67 10.05 -0.34 5.1 0 0 Z " fill="#C12E35" transform="translate(347,244)"/>
<path d="M0 0 C0 3.51716303 -0.82445585 4.37121748 -3 7 C-0.36 7 2.28 7 5 7 C1.74582055 8.79567975 -1.46571529 9.77381863 -5.0625 10.6875 C-6.62677734 11.09548828 -6.62677734 11.09548828 -8.22265625 11.51171875 C-11 12 -11 12 -14 11 C-13.24074219 10.45730469 -12.48148438 9.91460937 -11.69921875 9.35546875 C-10.70535156 8.64003906 -9.71148437 7.92460938 -8.6875 7.1875 C-7.70136719 6.47980469 -6.71523437 5.77210937 -5.69921875 5.04296875 C-3.59942813 3.45369163 -1.77965031 1.92542371 0 0 Z " fill="#C8292F" transform="translate(142,106)"/>
<path d="M0 0 C2.46800047 1.15173355 4.04783565 2.04783565 6 4 C6.1875 7.0625 6.1875 7.0625 6 10 C5 11 5 11 1.9375 11.0625 C0.968125 11.041875 -0.00125 11.02125 -1 11 C-1.33 9.35 -1.66 7.7 -2 6 C0.475 6.99 0.475 6.99 3 8 C3 7.34 3 6.68 3 6 C2.505 5.525625 2.01 5.05125 1.5 4.5625 C0 3 0 3 0 0 Z " fill="#C42931" transform="translate(124,249)"/>
<path d="M0 0 C3.875 1.875 3.875 1.875 5 3 C5.125 6 5.125 6 5 9 C4 10 4 10 1.5 10.125 C-1 10 -1 10 -2 9 C-2.26293056 4.96839809 -2.29404844 3.44107266 0 0 Z M0 4 C0.33 5.32 0.66 6.64 1 8 C1.99 7.34 2.98 6.68 4 6 C3.67 5.34 3.34 4.68 3 4 C2.01 4 1.02 4 0 4 Z " fill="#C32A34" transform="translate(115,250)"/>
<path d="M0 0 C1.65 0 3.3 0 5 0 C5.33 0.66 5.66 1.32 6 2 C5.01 2.495 5.01 2.495 4 3 C3.97285265 5.22909871 3.95353746 7.45829367 3.9375 9.6875 C3.92589844 10.92886719 3.91429688 12.17023438 3.90234375 13.44921875 C3.98521327 16.46235454 4.29160551 19.08275339 5 22 C4.34 21.67 3.68 21.34 3 21 C1.11610447 14.21551347 0.57690325 6.99874728 0 0 Z " fill="#CC2A32" transform="translate(118,82)"/>
<path d="M0 0 C0.66 0 1.32 0 2 0 C3.4908651 4.96955033 2.84081808 9.95509151 2 15 C1 16 1 16 -2.5625 16.0625 C-3.696875 16.041875 -4.83125 16.02125 -6 16 C-6 15.67 -6 15.34 -6 15 C-4.35 14.67 -2.7 14.34 -1 14 C-0.67 9.38 -0.34 4.76 0 0 Z " fill="#C63034" transform="translate(157,244)"/>
<path d="M0 0 C0.33 0 0.66 0 1 0 C0.67 3.3 0.34 6.6 0 10 C-1.65 10.33 -3.3 10.66 -5 11 C-4.54824045 6.14358485 -3.34650039 3.55565666 0 0 Z " fill="#E92223" transform="translate(158,107)"/>
<path d="M0 0 C4.5354875 4.5354875 5.20585371 11.76842229 5.3125 17.9375 C5.29619244 21.71541792 5.16785256 22.74822116 3 26 C3.33 22.37 3.66 18.74 4 15 C3.34 15 2.68 15 2 15 C2.33 13.02 2.66 11.04 3 9 C2.34 9 1.68 9 1 9 C0.67 6.03 0.34 3.06 0 0 Z " fill="#CF2429" transform="translate(153,77)"/>
<path d="M0 0 C0.99 0.33 1.98 0.66 3 1 C2.42462844 4.88375805 0.66963729 7.17781201 -2 10 C-4.25 10.8125 -4.25 10.8125 -6 11 C-6 10.34 -6 9.68 -6 9 C-5.34 9 -4.68 9 -4 9 C-4.33 8.01 -4.66 7.02 -5 6 C-4.01 5.67 -3.02 5.34 -2 5 C-1.34 5.33 -0.68 5.66 0 6 C-0.185625 5.38125 -0.37125 4.7625 -0.5625 4.125 C-1 2 -1 2 0 0 Z " fill="#D6262A" transform="translate(153,102)"/>
<path d="M0 0 C0 3 0 3 -2 7 C-7.28 6.67 -12.56 6.34 -18 6 C-18 5.67 -18 5.34 -18 5 C-16.55367187 4.83564453 -16.55367187 4.83564453 -15.078125 4.66796875 C-13.18320313 4.43013672 -13.18320313 4.43013672 -11.25 4.1875 C-9.99703125 4.03667969 -8.7440625 3.88585937 -7.453125 3.73046875 C-4.08950239 3.0189332 -2.48950819 2.29462245 0 0 Z " fill="#D2232D" transform="translate(264,215)"/>
<path d="M0 0 C0.33 0.66 0.66 1.32 1 2 C2.65 2 4.3 2 6 2 C6 2.33 6 2.66 6 3 C5.236875 3.0825 4.47375 3.165 3.6875 3.25 C0.86231866 3.73111678 0.86231866 3.73111678 -0.4375 6.0625 C-0.953125 6.701875 -1.46875 7.34125 -2 8 C-5.1875 8.25 -5.1875 8.25 -8 8 C-8.33 7.34 -8.66 6.68 -9 6 C-6 5 -3 4 0 3 C0 2.01 0 1.02 0 0 Z " fill="#C82A30" transform="translate(140,257)"/>
<path d="M0 0 C0 0.66 0 1.32 0 2 C1.65 1.67 3.3 1.34 5 1 C5 1.66 5 2.32 5 3 C2 5 2 5 -1 5 C-1.33 5.66 -1.66 6.32 -2 7 C-2.99 5.35 -3.98 3.7 -5 2 C-2 0 -2 0 0 0 Z M-2 2 C-1 4 -1 4 -1 4 Z " fill="#CA292D" transform="translate(135,105)"/>
<path d="M0 0 C0.33 0 0.66 0 1 0 C1 5.28 1 10.56 1 16 C0.34 16 -0.32 16 -1 16 C-1.02685095 13.52076199 -1.04676547 11.0418116 -1.0625 8.5625 C-1.07506836 7.50192383 -1.07506836 7.50192383 -1.08789062 6.41992188 C-1.09653588 4.61306441 -1.05220011 2.80612397 -1 1 C-0.67 0.67 -0.34 0.34 0 0 Z " fill="#CB2E38" transform="translate(353,244)"/>
<path d="M0 0 C0.33 0 0.66 0 1 0 C1 5.28 1 10.56 1 16 C0.34 16 -0.32 16 -1 16 C-1.02685095 13.52076199 -1.04676547 11.0418116 -1.0625 8.5625 C-1.07506836 7.50192383 -1.07506836 7.50192383 -1.08789062 6.41992188 C-1.09653588 4.61306441 -1.05220011 2.80612397 -1 1 C-0.67 0.67 -0.34 0.34 0 0 Z " fill="#CC2E34" transform="translate(299,244)"/>
<path d="M0 0 C0.33 0 0.66 0 1 0 C1 5.28 1 10.56 1 16 C0.34 16 -0.32 16 -1 16 C-1.02685095 13.52076199 -1.04676547 11.0418116 -1.0625 8.5625 C-1.07506836 7.50192383 -1.07506836 7.50192383 -1.08789062 6.41992188 C-1.09653588 4.61306441 -1.05220011 2.80612397 -1 1 C-0.67 0.67 -0.34 0.34 0 0 Z " fill="#C82E38" transform="translate(163,244)"/>
<path d="M0 0 C0.66 0 1.32 0 2 0 C2.33 1.65 2.66 3.3 3 5 C6.3 5.66 9.6 6.32 13 7 C13 7.33 13 7.66 13 8 C11.02090602 8.02686553 9.04171029 8.04633375 7.0625 8.0625 C5.96035156 8.07410156 4.85820312 8.08570313 3.72265625 8.09765625 C1 8 1 8 0 7 C-0.04092937 4.66702567 -0.04241723 2.33294775 0 0 Z " fill="#CA2533" transform="translate(203,252)"/>
<path d="M0 0 C4.21878192 -0.19622241 7.17010894 0.19769832 11 2 C10.67 2.66 10.34 3.32 10 4 C6.37471432 4.20140476 4.13498292 3.85776765 1 2 C1 2.99 1 3.98 1 5 C0.34 5 -0.32 5 -1 5 C-0.67 3.35 -0.34 1.7 0 0 Z " fill="#CF2B31" transform="translate(143,252)"/>
<path d="M0 0 C0.66 0 1.32 0 2 0 C3.26264601 4.29299643 2.62950412 6.87831311 1 11 C-1.08997373 7.60379269 -1.2632246 4.94836905 -1 1 C-0.67 0.67 -0.34 0.34 0 0 Z " fill="#BE3338" transform="translate(333,243)"/>
<path d="M0 0 C1.60031344 3.20062687 0.03173691 5.72271806 -1 9 C-3.31 8.67 -5.62 8.34 -8 8 C-7.236875 7.4225 -6.47375 6.845 -5.6875 6.25 C-3.33799083 4.28296907 -1.70676495 2.51523256 0 0 Z " fill="#D7252E" transform="translate(156,141)"/>
<path d="M0 0 C0.99 0.33 1.98 0.66 3 1 C4.1875 3.5625 4.1875 3.5625 5 6 C3.35 6.33 1.7 6.66 0 7 C-1.125 2.25 -1.125 2.25 0 0 Z " fill="#C0323B" transform="translate(209,244)"/>
<path d="M0 0 C2 1 2 1 3.125 3.875 C4 7 4 7 4 10 C2.02 9.01 0.04 8.02 -2 7 C-2 6.34 -2 5.68 -2 5 C-1.34 5 -0.68 5 0 5 C0 3.35 0 1.7 0 0 Z " fill="#E31A20" transform="translate(126,97)"/>
<path d="M0 0 C0 0.66 0 1.32 0 2 C-0.99 2.495 -0.99 2.495 -2 3 C-2 3.99 -2 4.98 -2 6 C-4.64 5.34 -7.28 4.68 -10 4 C-7.25346796 1.25346796 -3.91404908 0 0 0 Z " fill="#D72A30" transform="translate(96,129)"/>
<path d="M0 0 C1.32 0.66 2.64 1.32 4 2 C1.03 4.475 1.03 4.475 -2 7 C-2.6875 5.1875 -2.6875 5.1875 -3 3 C-1.5625 1.25 -1.5625 1.25 0 0 Z " fill="#DF262F" transform="translate(286,226)"/>
<path d="M0 0 C4.875 1.875 4.875 1.875 6 3 C6.14115161 5.67058851 6.04247107 8.32432238 6 11 C5.7525 10.484375 5.505 9.96875 5.25 9.4375 C3.60418384 6.22815849 1.8023904 3.12414336 0 0 Z " fill="#D02B32" transform="translate(330,127)"/>
<path d="M0 0 C0.66 0 1.32 0 2 0 C2 5.94 2 11.88 2 18 C1.67 18 1.34 18 1 18 C1 13.05 1 8.1 1 3 C0.34 3 -0.32 3 -1 3 C-0.67 2.01 -0.34 1.02 0 0 Z " fill="#BE272A" transform="translate(158,138)"/>
<path d="M0 0 C1.32 0.66 2.64 1.32 4 2 C4 3.98 4 5.96 4 8 C2.35 8 0.7 8 -1 8 C-0.505 7.54625 -0.01 7.0925 0.5 6.625 C2.22609337 5.12364481 2.22609337 5.12364481 2 3 C1.34 3 0.68 3 0 3 C0 2.01 0 1.02 0 0 Z " fill="#D7242C" transform="translate(116,251)"/>
<path d="M0 0 C1.65 0 3.3 0 5 0 C5.33 0.99 5.66 1.98 6 3 C4.35 2.67 2.7 2.34 1 2 C1.33 2.99 1.66 3.98 2 5 C1.01 5 0.02 5 -1 5 C-0.67 3.35 -0.34 1.7 0 0 Z " fill="#C62C36" transform="translate(188,251)"/>
<path d="M0 0 C-0.99 0.66 -1.98 1.32 -3 2 C-3.33 2.99 -3.66 3.98 -4 5 C-5.32 4.34 -6.64 3.68 -8 3 C-8 2.01 -8 1.02 -8 0 C-4.94736336 -0.98120464 -3.05263664 -0.98120464 0 0 Z " fill="#D22122" transform="translate(138,122)"/>
<path d="M0 0 C0.66 0.66 1.32 1.32 2 2 C1.34 3.32 0.68 4.64 0 6 C-3.65316671 4.75023244 -4.78065836 4.32901247 -7 1 C-4.525 1.99 -4.525 1.99 -2 3 C-1.67 2.34 -1.34 1.68 -1 1 C-0.67 0.67 -0.34 0.34 0 0 Z " fill="#D5232D" transform="translate(325,115)"/>
<path d="M0 0 C0.33 0 0.66 0 1 0 C1.19412181 1.47831221 1.38012131 2.95769316 1.5625 4.4375 C1.66691406 5.26121094 1.77132812 6.08492188 1.87890625 6.93359375 C1.91886719 7.61550781 1.95882812 8.29742187 2 9 C1 10 1 10 -2.5625 10.0625 C-3.696875 10.041875 -4.83125 10.02125 -6 10 C-6 9.67 -6 9.34 -6 9 C-4.35 8.67 -2.7 8.34 -1 8 C-0.67 5.36 -0.34 2.72 0 0 Z " fill="#B82D37" transform="translate(157,250)"/>
<path d="M0 0 C2 2 2 2 2.125 5.125 C2.08375 6.07375 2.0425 7.0225 2 8 C1.01 8 0.02 8 -1 8 C-1.04241723 5.66705225 -1.04092937 3.33297433 -1 1 C-0.67 0.67 -0.34 0.34 0 0 Z " fill="#BC3237" transform="translate(256,251)"/>
<path d="M0 0 C0 0.66 0 1.32 0 2 C-0.66 2 -1.32 2 -2 2 C-2.33 2.99 -2.66 3.98 -3 5 C-5.5625 6.1875 -5.5625 6.1875 -8 7 C-6.47663111 3.31852519 -4.31953005 0 0 0 Z " fill="#D02830" transform="translate(179,111)"/>
<path d="M0 0 C0.33 0 0.66 0 1 0 C0.67 3.3 0.34 6.6 0 10 C-0.66 8.68 -1.32 7.36 -2 6 C-2.66 5.67 -3.32 5.34 -4 5 C-2.69254251 3.31295807 -1.35827971 1.64639965 0 0 Z " fill="#C62B30" transform="translate(158,107)"/>
<path d="M0 0 C1.65 0 3.3 0 5 0 C5.33 0.66 5.66 1.32 6 2 C5.01 2.33 4.02 2.66 3 3 C2.67 5.31 2.34 7.62 2 10 C1.67 10 1.34 10 1 10 C0.67 6.7 0.34 3.4 0 0 Z " fill="#C42A29" transform="translate(118,82)"/>
<path d="M0 0 C1.65 0 3.3 0 5 0 C5.33 0.66 5.66 1.32 6 2 C5.34 2.66 4.68 3.32 4 4 C1.375 3.625 1.375 3.625 -1 3 C-0.67 2.01 -0.34 1.02 0 0 Z " fill="#AF373E" transform="translate(246,249)"/>
<path d="M0 0 C0 0.99 0 1.98 0 3 C-3.3 3.33 -6.6 3.66 -10 4 C-6.86268382 1.90845588 -3.85464592 0 0 0 Z " fill="#CF272C" transform="translate(148,117)"/>
<path d="M0 0 C1.65 0.33 3.3 0.66 5 1 C4.67 1.99 4.34 2.98 4 4 C2.35 3.67 0.7 3.34 -1 3 C-0.67 2.01 -0.34 1.02 0 0 Z " fill="#B13136" transform="translate(270,265)"/>
<path d="M0 0 C0.99 0.99 1.98 1.98 3 3 C2 4 2 4 -0.5625 4.0625 C-1.7690625 4.0315625 -1.7690625 4.0315625 -3 4 C-3 3.01 -3 2.02 -3 1 C-2.01 0.67 -1.02 0.34 0 0 Z " fill="#BD2D36" transform="translate(256,262)"/>
<path d="M0 0 C0.99 0.495 0.99 0.495 2 1 C2.34153937 2.66500443 2.67449498 4.33178677 3 6 C3.66 6.66 4.32 7.32 5 8 C3.0625 8.5625 3.0625 8.5625 1 9 C0 8 0 8 -0.09765625 6.15234375 C-0.06510417 4.1015625 -0.03255208 2.05078125 0 0 Z " fill="#C22A2D" transform="translate(266,254)"/>
<path d="M0 0 C1.65 0 3.3 0 5 0 C5.33 0.99 5.66 1.98 6 3 C4.35 3.33 2.7 3.66 1 4 C0.67 2.68 0.34 1.36 0 0 Z " fill="#B4373D" transform="translate(113,245)"/>
<path d="M0 0 C0.99 0 1.98 0 3 0 C3.33 0.99 3.66 1.98 4 3 C2.68 3 1.36 3 0 3 C0 2.01 0 1.02 0 0 Z " fill="#BA303C" transform="translate(284,244)"/>
<path d="M0 0 C0.99 0.33 1.98 0.66 3 1 C2.67 1.99 2.34 2.98 2 4 C1.01 3.67 0.02 3.34 -1 3 C-0.67 2.01 -0.34 1.02 0 0 Z " fill="#B6333B" transform="translate(177,249)"/>
<path d="M0 0 C0.99 0.33 1.98 0.66 3 1 C2.67 1.66 2.34 2.32 2 3 C1.01 2.67 0.02 2.34 -1 2 C-0.67 1.34 -0.34 0.68 0 0 Z " fill="#AD333F" transform="translate(146,262)"/>
</svg>
